<svg version="1.1" id="Layer_1" xmlns="http://www.w3.org/2000/svg" xmlns:xlink="http://www.w3.org/1999/xlink" x="0px" y="0px"
	 width="100%" viewBox="0 0 336 108" enable-background="new 0 0 336 108" xml:space="preserve">
<path fill="#ffffff00" opacity="1.000000" stroke="none" 
	d="
M229.000000,109.000000 
	C152.666687,109.000000 76.833382,109.000000 1.000051,109.000000 
	C1.000034,73.000031 1.000034,37.000065 1.000017,1.000075 
	C112.999931,1.000050 224.999863,1.000050 336.999817,1.000025 
	C336.999878,36.999924 336.999878,72.999847 336.999939,108.999886 
	C301.166656,109.000000 265.333344,109.000000 229.000000,109.000000 
M81.281151,23.147911 
	C80.407272,20.068489 79.201378,18.026173 75.165848,18.180462 
	C71.239105,18.330591 68.997025,19.102312 67.472359,23.149927 
	C63.908813,32.610298 59.707371,41.830620 55.755257,51.144337 
	C50.906818,62.570362 46.049221,73.992500 41.148563,85.526978 
	C50.877682,86.830444 50.878895,86.830956 54.305553,78.684204 
	C55.270267,76.390625 55.931423,73.896255 57.289322,71.867043 
	C58.185020,70.528519 60.034313,69.103554 61.530022,69.019241 
	C67.335930,68.691971 73.171211,68.885742 78.995560,68.885704 
	C90.490227,68.885643 90.490227,68.885681 94.826950,79.232979 
	C98.109871,87.065918 98.503044,87.260033 107.602715,85.224426 
	C98.935242,64.706993 90.298134,44.261440 81.281151,23.147911 
M306.086182,74.483856 
	C306.060455,67.157333 306.252899,59.822002 305.957611,52.506355 
	C305.521271,41.696533 297.959991,34.567333 287.319977,35.943172 
	C281.700897,36.669765 276.380585,39.706856 271.041046,41.658497 
	C270.797119,40.602318 270.324127,38.554447 269.923370,36.819275 
	C266.945282,36.819275 264.534088,36.819275 262.230469,36.819275 
	C262.230469,53.426800 262.230469,69.646347 262.230469,85.704437 
	C265.343628,85.704437 268.095123,85.704437 270.774170,85.704437 
	C270.905823,85.094315 271.031403,84.782188 271.032074,84.469795 
	C271.050049,75.977409 271.057587,67.484993 271.061951,58.992584 
	C271.066010,51.024586 279.439392,43.469475 287.416565,44.241142 
	C292.638458,44.746273 295.744629,47.209457 296.288849,52.662106 
	C296.931030,59.095745 296.778046,65.612389 296.886444,72.094444 
	C296.963135,76.679970 296.901306,81.267822 296.901306,85.703484 
	C300.351715,85.703484 303.097992,85.703484 306.086182,85.703484 
	C306.086182,82.096046 306.086182,78.787086 306.086182,74.483856 
M156.573151,86.014748 
	C167.020782,86.014748 177.468414,86.014748 187.810165,86.014748 
	C187.810165,82.796150 187.810165,80.095963 187.810165,76.846756 
	C178.916199,76.846756 170.411209,76.846756 161.178772,76.846756 
	C169.462158,67.183739 176.932129,58.033024 184.914169,49.353207 
	C188.578323,45.368721 188.641907,41.343124 187.780090,36.727428 
	C175.038803,36.727428 162.631042,36.727428 150.276001,36.727428 
	C150.276001,39.637890 150.276001,42.222004 150.276001,45.391285 
	C159.043533,45.391285 167.531326,45.391285 176.858093,45.391285 
	C168.342896,55.205269 160.736710,64.468903 152.547836,73.185127 
	C148.839447,77.132339 148.680161,81.122330 149.356354,86.014748 
	C151.635147,86.014748 153.615158,86.014748 156.573151,86.014748 
M213.601898,36.239395 
	C213.224854,32.948215 212.847809,29.657034 212.419296,25.916542 
	C206.418869,32.284763 200.766876,38.283207 195.129532,44.266102 
	C197.402054,44.445187 200.250580,44.669666 203.424225,44.919769 
	C203.424225,54.378590 203.482971,63.492752 203.409836,72.605858 
	C203.310867,84.938789 210.860352,87.666725 220.169067,86.744728 
	C226.947556,86.073341 227.951035,84.166847 225.973953,77.251389 
	C223.727524,77.713806 221.483597,78.498711 219.218948,78.563942 
	C216.054489,78.655113 213.046783,77.849579 213.017807,73.776741 
	C212.949478,64.175301 212.995895,54.573044 212.995895,44.398136 
	C217.739334,44.398136 222.124527,44.398136 226.599915,44.398136 
	C226.599915,41.539520 226.599915,39.261189 226.599915,36.368256 
	C222.460190,36.368256 218.514450,36.368256 213.601898,36.239395 
M137.068008,45.105774 
	C139.178375,44.819767 141.288742,44.533760 143.469025,44.238274 
	C143.469025,41.247597 143.469025,38.659512 143.469025,35.902889 
	C136.099442,34.973797 130.393661,37.956608 124.945473,42.892014 
	C124.385796,40.600105 123.930237,38.734550 123.433151,36.698921 
	C120.752464,36.698921 118.180153,36.698921 115.499222,36.698921 
	C115.499222,53.240067 115.499222,69.466530 115.499222,85.647263 
	C118.704422,85.647263 121.584930,85.647263 124.699677,85.647263 
	C124.699677,76.122765 124.974289,66.966949 124.588943,57.839001 
	C124.382576,52.950714 126.300972,49.931694 130.364166,47.890404 
	C132.282272,46.926777 134.298630,46.158775 137.068008,45.105774 
M242.467010,36.370438 
	C240.872437,36.451729 239.277863,36.533020 237.628876,36.617088 
	C237.628876,53.288235 237.628876,69.480110 237.628876,85.673569 
	C240.805862,85.673569 243.683762,85.673569 246.864166,85.673569 
	C246.864166,69.901558 246.924561,54.490139 246.713303,39.082436 
	C246.700684,38.163349 244.512375,37.274094 242.467010,36.370438 
M245.117340,16.751434 
	C242.518692,16.751434 239.920044,16.751434 237.419708,16.751434 
	C237.419708,20.255238 237.419708,23.288242 237.419708,26.414583 
	C240.811432,26.414583 243.832474,26.414583 247.615799,26.414583 
	C247.022247,22.917496 246.503738,19.862610 245.117340,16.751434 
z"/>
<path fill="#282828" opacity="1.000000" stroke="none" 
	d="
M81.471092,23.481901 
	C90.298134,44.261440 98.935242,64.706993 107.602715,85.224426 
	C98.503044,87.260033 98.109871,87.065918 94.826950,79.232979 
	C90.490227,68.885681 90.490227,68.885643 78.995560,68.885704 
	C73.171211,68.885742 67.335930,68.691971 61.530022,69.019241 
	C60.034313,69.103554 58.185020,70.528519 57.289322,71.867043 
	C55.931423,73.896255 55.270267,76.390625 54.305553,78.684204 
	C50.878895,86.830956 50.877682,86.830444 41.148563,85.526978 
	C46.049221,73.992500 50.906818,62.570362 55.755257,51.144337 
	C59.707371,41.830620 63.908813,32.610298 67.472359,23.149927 
	C68.997025,19.102312 71.239105,18.330591 75.165848,18.180462 
	C79.201378,18.026173 80.407272,20.068489 81.471092,23.481901 
M73.042236,33.667702 
	C69.458328,42.328388 65.874428,50.989075 62.164974,59.953156 
	C70.614052,59.953156 78.344803,59.953156 86.779816,59.953156 
	C82.676842,50.029026 78.759476,40.553848 74.656227,30.629055 
	C73.956284,31.825846 73.623215,32.395336 73.042236,33.667702 
z"/>
<path fill="#242424" opacity="1.000000" stroke="none" 
	d="
M306.086182,74.980995 
	C306.086182,78.787086 306.086182,82.096046 306.086182,85.703484 
	C303.097992,85.703484 300.351715,85.703484 296.901306,85.703484 
	C296.901306,81.267822 296.963135,76.679970 296.886444,72.094444 
	C296.778046,65.612389 296.931030,59.095745 296.288849,52.662106 
	C295.744629,47.209457 292.638458,44.746273 287.416565,44.241142 
	C279.439392,43.469475 271.066010,51.024586 271.061951,58.992584 
	C271.057587,67.484993 271.050049,75.977409 271.032074,84.469795 
	C271.031403,84.782188 270.905823,85.094315 270.774170,85.704437 
	C268.095123,85.704437 265.343628,85.704437 262.230469,85.704437 
	C262.230469,69.646347 262.230469,53.426800 262.230469,36.819275 
	C264.534088,36.819275 266.945282,36.819275 269.923370,36.819275 
	C270.324127,38.554447 270.797119,40.602318 271.041046,41.658497 
	C276.380585,39.706856 281.700897,36.669765 287.319977,35.943172 
	C297.959991,34.567333 305.521271,41.696533 305.957611,52.506355 
	C306.252899,59.822002 306.060455,67.157333 306.086182,74.980995 
z"/>
<path fill="#282828" opacity="1.000000" stroke="none" 
	d="
M156.084167,86.014748 
	C153.615158,86.014748 151.635147,86.014748 149.356354,86.014748 
	C148.680161,81.122330 148.839447,77.132339 152.547836,73.185127 
	C160.736710,64.468903 168.342896,55.205269 176.858093,45.391285 
	C167.531326,45.391285 159.043533,45.391285 150.276001,45.391285 
	C150.276001,42.222004 150.276001,39.637890 150.276001,36.727428 
	C162.631042,36.727428 175.038803,36.727428 187.780090,36.727428 
	C188.641907,41.343124 188.578323,45.368721 184.914169,49.353207 
	C176.932129,58.033024 169.462158,67.183739 161.178772,76.846756 
	C170.411209,76.846756 178.916199,76.846756 187.810165,76.846756 
	C187.810165,80.095963 187.810165,82.796150 187.810165,86.014748 
	C177.468414,86.014748 167.020782,86.014748 156.084167,86.014748 
z"/>
<path fill="#2E2E2E" opacity="1.000000" stroke="none" 
	d="
M214.085297,36.303825 
	C218.514450,36.368256 222.460190,36.368256 226.599915,36.368256 
	C226.599915,39.261189 226.599915,41.539520 226.599915,44.398136 
	C222.124527,44.398136 217.739334,44.398136 212.995895,44.398136 
	C212.995895,54.573044 212.949478,64.175301 213.017807,73.776741 
	C213.046783,77.849579 216.054489,78.655113 219.218948,78.563942 
	C221.483597,78.498711 223.727524,77.713806 225.973953,77.251389 
	C227.951035,84.166847 226.947556,86.073341 220.169067,86.744728 
	C210.860352,87.666725 203.310867,84.938789 203.409836,72.605858 
	C203.482971,63.492752 203.424225,54.378590 203.424225,44.919769 
	C200.250580,44.669666 197.402054,44.445187 195.129532,44.266102 
	C200.766876,38.283207 206.418869,32.284763 212.419296,25.916542 
	C212.847809,29.657034 213.224854,32.948215 214.085297,36.303825 
z"/>
<path fill="#2F2F2F" opacity="1.000000" stroke="none" 
	d="
M136.669250,45.203957 
	C134.298630,46.158775 132.282272,46.926777 130.364166,47.890404 
	C126.300972,49.931694 124.382576,52.950714 124.588943,57.839001 
	C124.974289,66.966949 124.699677,76.122765 124.699677,85.647263 
	C121.584930,85.647263 118.704422,85.647263 115.499222,85.647263 
	C115.499222,69.466530 115.499222,53.240067 115.499222,36.698921 
	C118.180153,36.698921 120.752464,36.698921 123.433151,36.698921 
	C123.930237,38.734550 124.385796,40.600105 124.945473,42.892014 
	C130.393661,37.956608 136.099442,34.973797 143.469025,35.902889 
	C143.469025,38.659512 143.469025,41.247597 143.469025,44.238274 
	C141.288742,44.533760 139.178375,44.819767 136.669250,45.203957 
z"/>
<path fill="#323232" opacity="1.000000" stroke="none" 
	d="
M242.901749,36.370697 
	C244.512375,37.274094 246.700684,38.163349 246.713303,39.082436 
	C246.924561,54.490139 246.864166,69.901558 246.864166,85.673569 
	C243.683762,85.673569 240.805862,85.673569 237.628876,85.673569 
	C237.628876,69.480110 237.628876,53.288235 237.628876,36.617088 
	C239.277863,36.533020 240.872437,36.451729 242.901749,36.370697 
z"/>
<path fill="#2B2B2B" opacity="1.000000" stroke="none" 
	d="
M245.551285,16.779579 
	C246.503738,19.862610 247.022247,22.917496 247.615799,26.414583 
	C243.832474,26.414583 240.811432,26.414583 237.419708,26.414583 
	C237.419708,23.288242 237.419708,20.255238 237.419708,16.751434 
	C239.920044,16.751434 242.518692,16.751434 245.551285,16.779579 
z"/>
<path fill="#FAFAFA" opacity="1.000000" stroke="none" 
	d="
M73.166199,33.316261 
	C73.623215,32.395336 73.956284,31.825846 74.656227,30.629055 
	C78.759476,40.553848 82.676842,50.029026 86.779816,59.953156 
	C78.344803,59.953156 70.614052,59.953156 62.164974,59.953156 
	C65.874428,50.989075 69.458328,42.328388 73.166199,33.316261 
z"/>
</svg>