<svg version="1.1" id="Layer_1" xmlns="http://www.w3.org/2000/svg" xmlns:xlink="http://www.w3.org/1999/xlink" x="0px" y="0px"
	 width="100%" viewBox="0 0 239 216" enable-background="new 0 0 239 216" xml:space="preserve">
<path fill="#ffffff" opacity="1.000000" stroke="none" 
	d="
M240.000000,142.000000 
	C240.000000,166.932297 240.000000,191.864609 240.000000,217.000000 
	C211.312759,217.000000 182.625031,217.000000 153.129303,216.683273 
	C152.810242,215.934402 153.245850,215.214584 153.796021,215.112564 
	C164.981766,213.038071 176.196594,211.118393 187.372040,208.991287 
	C197.247772,207.111542 202.159760,205.175690 198.938675,191.441727 
	C195.910736,178.531174 192.593201,165.688431 189.387466,152.819733 
	C188.292084,148.422607 190.478683,145.234802 194.838287,145.023026 
	C202.262299,144.662354 209.689041,144.356766 217.111908,143.975113 
	C217.767349,143.941422 218.402802,143.518311 219.047531,143.276062 
	C219.005142,142.828445 218.962769,142.380814 218.920380,141.933182 
	C174.472198,129.015457 129.786148,131.694244 85.072151,141.132065 
	C77.147957,142.804626 69.479652,145.689545 61.693188,148.014633 
	C61.858234,148.667435 62.023277,149.320236 62.188320,149.973022 
	C67.180702,149.647781 72.170662,149.277710 77.166046,149.008179 
	C84.087692,148.634689 91.021049,148.449600 97.935738,147.981949 
	C110.467339,147.134430 115.482475,151.273285 117.970108,161.716629 
	C118.792564,165.169403 119.046715,168.774933 120.057060,172.162567 
	C124.503410,187.070938 123.404121,203.585312 133.000000,217.000000 
	C89.105438,217.000000 45.210873,217.000000 1.000000,217.000000 
	C1.000000,200.313766 1.000000,183.625549 1.370820,166.459061 
	C2.521162,165.772980 3.409433,165.739258 4.063548,165.330673 
	C11.432897,160.727676 18.437134,155.406433 26.174026,151.551849 
	C45.651897,141.847794 66.210083,134.970581 87.636917,131.074463 
	C99.571312,128.904419 111.628563,127.273483 123.693909,126.001472 
	C134.184082,124.895523 144.759842,124.235687 155.304657,124.140266 
	C162.514175,124.075027 169.821457,124.829109 176.933609,126.078690 
	C191.432037,128.626038 205.907166,131.420105 220.231903,134.792130 
	C227.011185,136.387985 233.422150,139.548431 240.000000,142.000000 
z"/>
<path fill="#ffffff" opacity="1.000000" stroke="none" 
	d="
M0.999996,161.000000 
	C1.000000,107.761276 1.000000,54.522556 1.000000,1.000000 
	C29.686937,1.000000 58.374809,1.000000 87.671646,1.381559 
	C85.067535,5.069100 85.654518,9.042741 86.482338,12.948824 
	C89.235115,25.937834 92.143158,38.894012 94.877998,51.886703 
	C95.859070,56.547607 92.952141,60.057182 88.175713,59.952229 
	C84.562134,59.872826 80.945572,59.440697 77.353081,58.985847 
	C68.071899,57.810749 58.817722,56.410244 49.524483,55.346878 
	C43.630192,54.672432 37.688087,54.152840 31.762207,54.094536 
	C26.296391,54.040764 22.141443,59.188683 23.068466,64.495132 
	C26.737299,85.496208 30.347088,106.510841 34.416286,127.435356 
	C35.047886,130.683136 33.927357,131.474991 31.778856,132.672806 
	C19.951141,139.266922 9.439854,147.274719 3.029565,159.668488 
	C2.705676,160.294708 1.692326,160.564331 0.999996,161.000000 
z"/>
<path fill="#ffffff" opacity="1.000000" stroke="none" 
	d="
M100.000000,1.000000 
	C146.593124,1.000000 193.186249,1.000000 240.000000,1.000000 
	C240.000000,46.687325 240.000000,92.375000 239.670135,138.715424 
	C231.600006,134.551865 225.984573,128.579727 224.240555,118.907585 
	C222.237320,107.797943 218.857819,96.932060 215.970581,85.988144 
	C214.592590,80.764954 212.153976,76.552605 205.957535,75.863686 
	C198.778625,75.065552 191.658463,73.628006 184.466263,73.087807 
	C174.899994,72.369293 169.245316,69.124535 167.409348,61.768635 
	C164.747452,51.103634 162.386505,40.362385 159.981628,29.634729 
	C158.115448,21.310009 153.987976,15.421751 145.021194,13.420277 
	C130.452301,10.168366 115.981567,6.474637 101.492233,2.875493 
	C100.877464,2.722783 100.492188,1.646195 100.000000,1.000000 
z"/>
<path fill="#02679C" opacity="1.000000" stroke="none" 
	d="
M99.539368,1.000000 
	C100.492188,1.646195 100.877464,2.722783 101.492233,2.875493 
	C115.981567,6.474637 130.452301,10.168366 145.021194,13.420277 
	C153.987976,15.421751 158.115448,21.310009 159.981628,29.634729 
	C162.386505,40.362385 164.747452,51.103634 167.409348,61.768635 
	C169.245316,69.124535 174.899994,72.369293 184.466263,73.087807 
	C191.658463,73.628006 198.778625,75.065552 205.957535,75.863686 
	C212.153976,76.552605 214.592590,80.764954 215.970581,85.988144 
	C218.857819,96.932060 222.237320,107.797943 224.240555,118.907585 
	C225.984573,128.579727 231.600006,134.551865 239.670135,139.184082 
	C240.000000,139.750000 240.000000,140.500000 240.000000,141.625000 
	C233.422150,139.548431 227.011185,136.387985 220.231903,134.792130 
	C205.907166,131.420105 191.432037,128.626038 176.933609,126.078690 
	C169.821457,124.829109 162.514175,124.075027 155.304657,124.140266 
	C144.759842,124.235687 134.184082,124.895523 123.693909,126.001472 
	C111.628563,127.273483 99.571312,128.904419 87.636917,131.074463 
	C66.210083,134.970581 45.651897,141.847794 26.174026,151.551849 
	C18.437134,155.406433 11.432897,160.727676 4.063548,165.330673 
	C3.409433,165.739258 2.521162,165.772980 1.370820,165.990402 
	C1.000000,164.611115 1.000000,163.222214 0.999996,161.416656 
	C1.692326,160.564331 2.705676,160.294708 3.029565,159.668488 
	C9.439854,147.274719 19.951141,139.266922 31.778856,132.672806 
	C33.927357,131.474991 35.047886,130.683136 34.416286,127.435356 
	C30.347088,106.510841 26.737299,85.496208 23.068466,64.495132 
	C22.141443,59.188683 26.296391,54.040764 31.762207,54.094536 
	C37.688087,54.152840 43.630192,54.672432 49.524483,55.346878 
	C58.817722,56.410244 68.071899,57.810749 77.353081,58.985847 
	C80.945572,59.440697 84.562134,59.872826 88.175713,59.952229 
	C92.952141,60.057182 95.859070,56.547607 94.877998,51.886703 
	C92.143158,38.894012 89.235115,25.937834 86.482338,12.948824 
	C85.654518,9.042741 85.067535,5.069100 88.140305,1.381559 
	C91.692909,1.000000 95.385818,1.000000 99.539368,1.000000 
M43.113319,104.419273 
	C44.441429,111.320122 45.769539,118.220970 47.105148,125.160782 
	C105.007454,105.519867 161.892517,103.113556 218.672409,126.245087 
	C218.855072,125.090485 219.090561,124.575104 218.981949,124.147018 
	C215.789810,111.564720 212.666870,98.962395 209.196259,86.456688 
	C208.812912,85.075363 206.518143,83.537720 204.925537,83.298180 
	C198.186050,82.284569 191.387360,81.609322 184.591049,81.040604 
	C170.333725,79.847549 162.373795,73.259979 158.960129,59.447056 
	C156.324615,48.782738 153.644913,38.124599 151.317978,27.391491 
	C150.562729,23.907900 148.970566,22.419119 145.556351,21.682474 
	C134.335251,19.261419 123.184761,16.513287 112.005936,13.895984 
	C106.894897,12.699334 101.781044,11.514750 95.863663,10.137360 
	C96.220116,12.611024 96.360489,14.210022 96.689552,15.769197 
	C99.164253,27.494846 101.704964,39.206593 104.168701,50.934517 
	C106.953506,64.190765 101.363792,70.997116 87.846016,70.034355 
	C76.735786,69.243057 65.685661,67.625107 54.601727,66.440559 
	C48.602497,65.799416 42.588280,65.298515 35.861809,64.666832 
	C38.383007,78.410072 40.690544,90.988617 43.113319,104.419273 
z"/>
<path fill="#74CCE5" opacity="1.000000" stroke="none" 
	d="
M133.468414,217.000000 
	C123.404121,203.585312 124.503410,187.070938 120.057060,172.162567 
	C119.046715,168.774933 118.792564,165.169403 117.970108,161.716629 
	C115.482475,151.273285 110.467339,147.134430 97.935738,147.981949 
	C91.021049,148.449600 84.087692,148.634689 77.166046,149.008179 
	C72.170662,149.277710 67.180702,149.647781 62.188320,149.973022 
	C62.023277,149.320236 61.858234,148.667435 61.693188,148.014633 
	C69.479652,145.689545 77.147957,142.804626 85.072151,141.132065 
	C129.786148,131.694244 174.472198,129.015457 218.920380,141.933182 
	C218.962769,142.380814 219.005142,142.828445 219.047531,143.276062 
	C218.402802,143.518311 217.767349,143.941422 217.111908,143.975113 
	C209.689041,144.356766 202.262299,144.662354 194.838287,145.023026 
	C190.478683,145.234802 188.292084,148.422607 189.387466,152.819733 
	C192.593201,165.688431 195.910736,178.531174 198.938675,191.441727 
	C202.159760,205.175690 197.247772,207.111542 187.372040,208.991287 
	C176.196594,211.118393 164.981766,213.038071 153.796021,215.112564 
	C153.245850,215.214584 152.810242,215.934402 152.660645,216.683273 
	C146.645599,217.000000 140.291214,217.000000 133.468414,217.000000 
z"/>
<path fill="#73CBE4" opacity="1.000000" stroke="none" 
	d="
M43.055702,103.993225 
	C40.690544,90.988617 38.383007,78.410072 35.861809,64.666832 
	C42.588280,65.298515 48.602497,65.799416 54.601727,66.440559 
	C65.685661,67.625107 76.735786,69.243057 87.846016,70.034355 
	C101.363792,70.997116 106.953506,64.190765 104.168701,50.934517 
	C101.704964,39.206593 99.164253,27.494846 96.689552,15.769197 
	C96.360489,14.210022 96.220116,12.611024 95.863663,10.137360 
	C101.781044,11.514750 106.894897,12.699334 112.005936,13.895984 
	C123.184761,16.513287 134.335251,19.261419 145.556351,21.682474 
	C148.970566,22.419119 150.562729,23.907900 151.317978,27.391491 
	C153.644913,38.124599 156.324615,48.782738 158.960129,59.447056 
	C162.373795,73.259979 170.333725,79.847549 184.591049,81.040604 
	C191.387360,81.609322 198.186050,82.284569 204.925537,83.298180 
	C206.518143,83.537720 208.812912,85.075363 209.196259,86.456688 
	C212.666870,98.962395 215.789810,111.564720 218.981949,124.147018 
	C219.090561,124.575104 218.855072,125.090485 218.672409,126.245087 
	C161.892517,103.113556 105.007454,105.519867 47.105148,125.160782 
	C45.769539,118.220970 44.441429,111.320122 43.055702,103.993225 
z"/>
</svg>